# File created by Blade
# Date/Time:  Wed Apr 08 17:35:20 2015
#---------------------------------------------------------
:version 1.10
:name HOM
:units
  mass 1.0
  length 1.000000
  angle deg
:documentation
     Acclaim Skeleton File
:root
   axis xyz
   order TX TY TZ RX RY RZ
   position 0.000000 0.000000 0.000000
   orientation 0 0 0
:bonedata
   begin
      id 1
      name Spine_dum
      direction 0.000000 1.000000 0.000000
      length 5.893853
      axis 0.0 0.0 0.0 xyz
   end
   begin
      id 2
      name LeftUpLeg_dum
      direction 1.000000 0.000000 0.000000
      length 3.697939
      axis 0.0 0.0 0.0 xyz
   end
   begin
      id 3
      name RightUpLeg_dum
      direction -1.000000 0.000000 0.000000
      length 3.697939
      axis 0.0 0.0 0.0 xyz
   end
   begin
      id 4
      name Spine
      direction 0.000000 1.000000 0.000000
      length 0.000000
      axis 0.0 0.0 0.0 xyz
      dof rx ry rz
   end
   begin
      id 5
      name Spine_dum1
      direction 0.000000 1.000000 0.000000
      length 16.447146
      axis 0.0 0.0 0.0 xyz
   end
   begin
      id 6
      name Spine_dum2
      direction 0.000000 1.000000 0.000000
      length 10.900383
      axis 0.0 0.0 0.0 xyz
   end
   begin
      id 7
      name Spine_dum3
      direction 0.000000 1.000000 0.000000
      length 10.900383
      axis 0.0 0.0 0.0 xyz
   end
   begin
      id 8
      name Head
      direction 0.000000 1.000000 0.000000
      length 4.527550
      axis 0.0 0.0 0.0 xyz
      dof rx ry rz
   end
   begin
      id 9
      name LeftShoulder
      direction 1.000000 0.000000 0.000000
      length 8.219464
      axis 0.0 0.0 -90.0 xyz
      dof rx ry rz
   end
   begin
      id 10
      name LeftArm
      direction 1.000000 0.000000 0.000000
      length 11.094937
      axis 0.0 0.0 -90.0 xyz
      dof rx ry rz
   end
   begin
      id 11
      name LeftForeArm
      direction 1.000000 0.000000 0.000000
      length 9.103875
      axis 0.0 0.0 -90.0 xyz
      dof ry rz rx
   end
   begin
      id 12
      name LeftHand
      direction 0.000000 0.000000 0.000000
      length 0.000000
      axis 0.0 0.0 -90.0 xyz
      dof rx ry rz
   end
   begin
      id 13
      name LeftHand_dum1
      direction 0.000000 0.000000 0.000000
      length 0.000000
      axis 0.0 0.0 -90.0 xyz
   end
   begin
      id 14
      name LeftHand_dum2
      direction 1.000000 0.000000 0.000000
      length 3.937000
      axis 0.0 0.0 -90.0 xyz
   end
   begin
      id 15
      name LeftHandThumb1
      direction 0.000000 0.000000 1.000000
      length 3.937000
      axis 0.0 0.0 -90.0 xyz
      dof rx rz ry
   end
   begin
      id 16
      name RightShoulder
      direction -1.000000 0.000000 0.000000
      length 8.219464
      axis 0.0 0.0 90.0 xyz
      dof rx ry rz
   end
   begin
      id 17
      name RightArm
      direction -1.000000 0.000000 0.000000
      length 11.094937
      axis 0.0 0.0 90.0 xyz
      dof rx ry rz
   end
   begin
      id 18
      name RightForeArm
      direction -1.000000 0.000000 0.000000
      length 9.103875
      axis 0.0 0.0 90.0 xyz
      dof ry rz rx
   end
   begin
      id 19
      name RightHand
      direction 0.000000 0.000000 0.000000
      length 0.000000
      axis 0.0 0.0 90.0 xyz
      dof rx ry rz
   end
   begin
      id 20
      name RightHand_dum1
      direction 0.000000 0.000000 0.000000
      length 0.000000
      axis 0.0 0.0 90.0 xyz
   end
   begin
      id 21
      name RightHand_dum2
      direction -1.000000 0.000000 0.000000
      length 3.937000
      axis 0.0 0.0 90.0 xyz
   end
   begin
      id 22
      name RightHandThumb1
      direction 0.000000 0.000000 1.000000
      length 3.937000
      axis 0.0 0.0 90.0 xyz
      dof rx rz ry
   end
   begin
      id 23
      name LeftUpLeg
      direction 0.000000 -1.000000 0.000000
      length 16.181467
      axis 0.0 0.0 0.0 xyz
      dof rx ry rz
   end
   begin
      id 24
      name LeftLeg
      direction 0.000000 -1.000000 0.000000
      length 16.501392
      axis 0.0 0.0 0.0 xyz
      dof rx ry rz
   end
   begin
      id 25
      name LeftFoot
      direction 0.000000 -0.258819 0.965926
      length 6.408245
      axis 15.0 0.0 0.0 xyz
      dof rx ry rz
   end
   begin
      id 26
      name LeftToeBase
      direction 0.000000 0.000000 1.000000
      length 2.952750
      axis 0.0 0.0 0.0 xyz
      dof rx ry rz
   end
   begin
      id 27
      name RightUpLeg
      direction 0.000000 -1.000000 0.000000
      length 16.181467
      axis 0.0 0.0 0.0 xyz
      dof rx ry rz
   end
   begin
      id 28
      name RightLeg
      direction 0.000000 -1.000000 0.000000
      length 16.501392
      axis 0.0 0.0 0.0 xyz
      dof rx ry rz
   end
   begin
      id 29
      name RightFoot
      direction 0.000000 -0.258819 0.965926
      length 6.408245
      axis 15.0 0.0 0.0 xyz
      dof rx ry rz
   end
   begin
      id 30
      name RightToeBase
      direction 0.000000 0.000000 1.000000
      length 2.952750
      axis 0.0 0.0 0.0 xyz
      dof rx ry rz
   end
:hierarchy
   begin
      root Spine_dum LeftUpLeg_dum RightUpLeg_dum
      Spine_dum Spine
      LeftUpLeg_dum LeftUpLeg
      RightUpLeg_dum RightUpLeg
      Spine Spine_dum1 Spine_dum2 Spine_dum3
      Spine_dum1 Head
      Spine_dum2 LeftShoulder
      Spine_dum3 RightShoulder
      LeftShoulder LeftArm
      LeftArm LeftForeArm
      LeftForeArm LeftHand
      LeftHand LeftHand_dum1 LeftHand_dum2
      LeftHand_dum1 LeftHandThumb1
      RightShoulder RightArm
      RightArm RightForeArm
      RightForeArm RightHand
      RightHand RightHand_dum1 RightHand_dum2
      RightHand_dum1 RightHandThumb1
      LeftUpLeg LeftLeg
      LeftLeg LeftFoot
      LeftFoot LeftToeBase
      RightUpLeg RightLeg
      RightLeg RightFoot
      RightFoot RightToeBase
   end

# File created by Blade
# Date/Time:  Wed Apr 08 17:35:25 2015
# Frame Rate: 120.000 fps
#------------------------------------------------------
:FULLY-SPECIFIED
:DEGREES
1036
root 8.892721 37.324651 4.726875 151.789454 -70.046736 -109.315348
Spine -40.390606 7.145436 10.111421
Head 24.882679 -10.790650 8.706085
LeftShoulder -9.897847 25.364297 13.786512
LeftArm 21.519863 29.496300 -75.087508
LeftForeArm 19.507621 0.000000 28.146241
LeftHand -13.067100 -0.000000 -10.959568
LeftHandThumb1 -26.253704 0.000000 33.147579
RightShoulder -39.207782 -53.002513 18.719147
RightArm 57.203570 -21.787331 44.288662
RightForeArm -0.168247 0.000000 24.506220
RightHand -1.101611 -0.000000 17.728754
RightHandThumb1 -24.326973 -0.000000 -32.862282
LeftUpLeg -55.891125 20.653474 -7.087230
LeftLeg 22.973134 -0.000000 -0.000000
LeftFoot -13.294682 16.504470 -5.716661
LeftToeBase 4.004586 -0.000000 -0.000000
RightUpLeg -133.730624 -5.187249 38.350374
RightLeg 101.793624 -0.000000 -0.000000
RightFoot -19.940082 -32.898453 7.988856
RightToeBase -26.757239 -0.000000 0.000000
1037
root 8.901048 37.326728 4.753790 152.634079 -69.936063 -110.064667
Spine -40.418649 7.206748 10.052851
Head 24.980412 -10.909571 8.710653
LeftShoulder -9.876573 25.351242 13.800587
LeftArm 21.484803 29.717925 -75.021047
LeftForeArm 19.772325 -0.000000 28.083430
LeftHand -13.219058 -0.000000 -10.639565
LeftHandThumb1 -26.253704 0.000000 33.147579
RightShoulder -39.237358 -53.009118 18.768382
RightArm 57.276771 -21.775783 44.215375
RightForeArm -0.408133 -0.000000 24.483791
RightHand -1.300172 -0.000000 18.174150
RightHandThumb1 -24.326973 -0.000000 -32.862282
LeftUpLeg -55.985811 20.732155 -7.250533
LeftLeg 22.919190 -0.000000 -0.000000
LeftFoot -13.293935 16.603169 -5.752907
LeftToeBase 3.999354 -0.000000 -0.000000
RightUpLeg -133.803826 -5.349882 38.260676
RightLeg 101.696829 -0.000000 -0.000000
RightFoot -19.156677 -32.678372 7.741049
RightToeBase -26.486610 -0.000000 0.000000
1038
root 8.905691 37.328760 4.781902 153.395490 -69.804784 -110.730479
Spine -40.454912 7.310830 10.035829
Head 25.073276 -11.052854 8.636794
LeftShoulder -9.866896 25.367505 13.771561
LeftArm 21.483723 29.792712 -74.963423
LeftForeArm 19.841763 -0.000000 28.015267
LeftHand -13.279076 -0.000000 -10.672971
LeftHandThumb1 -26.253704 0.000000 33.147579
RightShoulder -39.285017 -53.007585 18.785433
RightArm 57.302359 -21.758192 44.201289
RightForeArm -0.595166 -0.000000 24.473440
RightHand -1.317390 0.000000 18.298734
RightHandThumb1 -24.326973 -0.000000 -32.862282
LeftUpLeg -56.163885 20.920419 -7.504940
LeftLeg 22.951702 -0.000000 -0.000000
LeftFoot -13.288608 16.603050 -5.693260
LeftToeBase 3.996622 -0.000000 -0.000000
RightUpLeg -133.876526 -5.512363 38.217278
RightLeg 101.623374 -0.000000 -0.000000
RightFoot -18.068319 -32.415799 7.479273
RightToeBase -26.122303 -0.000000 0.000000
1039
root 8.912857 37.334213 4.808646 154.177243 -69.673219 -111.346157
Spine -40.565176 7.398008 10.028470
Head 25.162622 -11.143382 8.567742
LeftShoulder -9.873241 25.363589 13.761280
LeftArm 21.419425 29.798929 -74.985626
LeftForeArm 19.970740 -0.000000 27.931861
LeftHand -13.218438 -0.000000 -10.799745
LeftHandThumb1 -26.253704 0.000000 33.147579
RightShoulder -39.313374 -53.022552 18.778535
RightArm 57.339498 -21.779137 44.166491
RightForeArm -0.649991 0.000000 24.463737
RightHand -1.430308 0.000000 18.573230
RightHandThumb1 -24.326973 -0.000000 -32.862282
LeftUpLeg -56.277137 20.911035 -7.573839
LeftLeg 22.850213 -0.000000 -0.000000
LeftFoot -13.284109 16.805334 -5.751338
LeftToeBase 4.034274 -0.000000 -0.000000
RightUpLeg -134.009641 -5.645899 38.167639
RightLeg 101.563590 -0.000000 -0.000000
RightFoot -16.633736 -31.954585 7.395625
RightToeBase -25.630371 -0.000000 0.000000
1040
root 8.917430 37.337483 4.835916 154.910375 -69.549568 -111.966674
Spine -40.623432 7.479872 10.011500
Head 25.258375 -11.244200 8.507427
LeftShoulder -9.870035 25.389192 13.739652
LeftArm 21.421162 29.819548 -74.938484
LeftForeArm 20.138997 -0.000000 27.857324
LeftHand -13.116364 -0.000000 -11.021773
LeftHandThumb1 -26.253704 0.000000 33.147579
RightShoulder -39.307730 -53.016288 18.739315
RightArm 57.338116 -21.820357 44.158159
RightForeArm -0.806930 -0.000000 24.467140
RightHand -1.562371 -0.000000 18.886598
RightHandThumb1 -24.326973 -0.000000 -32.862282
LeftUpLeg -56.293861 20.838140 -7.551029
LeftLeg 22.750937 -0.000000 -0.000000
LeftFoot -13.281422 17.051551 -5.796558
LeftToeBase 4.031985 -0.000000 -0.000000
RightUpLeg -134.134352 -5.828901 38.090978
RightLeg 101.557857 -0.000000 -0.000000
RightFoot -14.711497 -31.326211 7.383394
RightToeBase -24.815904 -0.000000 0.000000
1041
root 8.921361 37.339708 4.863396 155.626432 -69.394425 -112.603674
Spine -40.630325 7.577390 10.030206
Head 25.342548 -11.325207 8.419057
LeftShoulder -9.893964 25.401368 13.689293
LeftArm 21.427761 29.886533 -74.892544
LeftForeArm 20.035508 -0.000000 27.747543
LeftHand -13.120470 -0.000000 -10.947954
LeftHandThumb1 -26.253704 0.000000 33.147579
RightShoulder -39.291296 -53.025566 18.699416
RightArm 57.365781 -21.858863 44.094001
RightForeArm -0.778436 -0.000000 24.458500
RightHand -1.621584 -0.000000 19.305465
RightHandThumb1 -24.326973 -0.000000 -32.862282
LeftUpLeg -56.323493 20.839242 -7.567909
LeftLeg 22.691907 -0.000000 -0.000000
LeftFoot -13.303347 17.278359 -5.835740
LeftToeBase 4.044314 -0.000000 -0.000000
RightUpLeg -134.216859 -6.024809 37.964941
RightLeg 101.600823 -0.000000 -0.000000
RightFoot -12.497480 -30.339965 7.845068
RightToeBase -23.549728 -0.000000 0.000000
1042
root 8.922854 37.340032 4.890862 156.251189 -69.243346 -113.202504
Spine -40.576869 7.658521 10.067742
Head 25.417570 -11.368341 8.346629
LeftShoulder -9.926020 25.425843 13.609451
LeftArm 21.418783 29.840747 -74.860825
LeftForeArm 20.241759 -0.000000 27.691383
LeftHand -13.052432 -0.000000 -11.165683
LeftHandThumb1 -26.253704 0.000000 33.147579
RightShoulder -39.271481 -53.040502 18.656531
RightArm 57.407842 -21.900007 44.012785
RightForeArm -0.765254 0.000000 24.440941
RightHand -1.716459 -0.000000 19.640406
RightHandThumb1 -24.326973 -0.000000 -32.862282
LeftUpLeg -56.311230 20.851427 -7.572337
LeftLeg 22.658866 -0.000000 -0.000000
LeftFoot -13.330976 17.474501 -5.884826
LeftToeBase 4.002612 -0.000000 -0.000000
RightUpLeg -134.285328 -6.265027 37.826015
RightLeg 101.674619 -0.000000 -0.000000
RightFoot -9.526564 -29.335666 8.244810
RightToeBase -22.849223 -0.000000 0.000000
1043
root 8.925034 37.339084 4.914357 156.929492 -69.097951 -113.866382
Spine -40.516750 7.718724 10.065588
Head 25.486783 -11.384991 8.297950
LeftShoulder -9.945843 25.463754 13.559310
LeftArm 21.428204 29.841909 -74.799807
LeftForeArm 20.217699 0.000000 27.640927
LeftHand -13.040812 -0.000000 -11.194802
LeftHandThumb1 -26.253704 0.000000 33.147579
RightShoulder -39.240610 -53.040675 18.620778
RightArm 57.438258 -21.950496 43.952204
RightForeArm -0.647962 -0.000000 24.412877
RightHand -1.771711 -0.000000 19.692340
RightHandThumb1 -24.326973 -0.000000 -32.862282
LeftUpLeg -56.296960 20.872488 -7.596141
LeftLeg 22.639966 -0.000000 -0.000000
LeftFoot -13.354098 17.673387 -5.909535
LeftToeBase 3.950597 -0.000000 -0.000000
RightUpLeg -134.356518 -6.499372 37.629828
RightLeg 101.793854 -0.000000 -0.000000
RightFoot -6.202114 -28.189187 8.764667
RightToeBase -21.867778 -0.000000 0.000000
